<?xml version="1.0" encoding="UTF-8" standalone="no"?>
<!-- Created with Inkscape (http://www.inkscape.org/) -->

<svg
   xmlns:dc="http://purl.org/dc/elements/1.1/"
   xmlns:cc="http://creativecommons.org/ns#"
   xmlns:rdf="http://www.w3.org/1999/02/22-rdf-syntax-ns#"
   xmlns:svg="http://www.w3.org/2000/svg"
   xmlns="http://www.w3.org/2000/svg"
   xmlns:sodipodi="http://sodipodi.sourceforge.net/DTD/sodipodi-0.dtd"
   xmlns:inkscape="http://www.inkscape.org/namespaces/inkscape"
   width="48"
   height="48"
   id="svg2"
   version="1.1"
   inkscape:version="0.47pre4 r22446"
   sodipodi:docname="constants.svg">
  <defs
     id="defs4">
    <inkscape:perspective
       sodipodi:type="inkscape:persp3d"
       inkscape:vp_x="0 : 526.18109 : 1"
       inkscape:vp_y="0 : 1000 : 0"
       inkscape:vp_z="744.09448 : 526.18109 : 1"
       inkscape:persp3d-origin="372.04724 : 350.78739 : 1"
       id="perspective10" />
  </defs>
  <sodipodi:namedview
     id="base"
     pagecolor="#ffffff"
     bordercolor="#666666"
     borderopacity="1.0"
     inkscape:pageopacity="0.0"
     inkscape:pageshadow="2"
     inkscape:zoom="5.6"
     inkscape:cx="59.559375"
     inkscape:cy="39.611755"
     inkscape:document-units="px"
     inkscape:current-layer="text2816"
     showgrid="false"
     inkscape:window-width="1280"
     inkscape:window-height="949"
     inkscape:window-x="0"
     inkscape:window-y="25"
     inkscape:window-maximized="1" />
  <metadata
     id="metadata7">
    <rdf:RDF>
      <cc:Work
         rdf:about="">
        <dc:format>image/svg+xml</dc:format>
        <dc:type
           rdf:resource="http://purl.org/dc/dcmitype/StillImage" />
      </cc:Work>
    </rdf:RDF>
  </metadata>
  <g
     inkscape:label="Ebene 1"
     inkscape:groupmode="layer"
     id="layer1"
     transform="translate(0,-1004.3622)">
    <g
       style="font-size:40px;font-style:normal;font-variant:normal;font-weight:bold;font-stretch:normal;fill:#000000;fill-opacity:1;stroke:none;font-family:KacstFarsi;-inkscape-font-specification:KacstFarsi Medium"
       id="text2816">
      <path
         d="m 43.396,1012.5582 c 0.048,-0.24 0.144,-0.48 0.144,-0.768 0,-0.672 -0.672001,-0.672 -1.2,-0.672 l -4.464,3.456 c -2.207998,-2.448 -5.472003,-3.456 -8.784,-3.456 -15.455985,0 -23.952,11.76 -23.952,21.6 0,9.072 7.248008,12.96 15.648,12.96 4.031996,0 8.112004,-1.248 11.76,-3.936 4.655995,-3.456 5.52,-7.872 5.52,-8.112 0,-0.672 -0.672,-0.672 -1.104,-0.672 -0.911999,0 -0.96,0.096 -1.2,0.912 -1.967998,6.096 -8.208005,9.552 -13.68,9.552 -2.927997,0 -5.520002,-0.672 -7.488,-2.208 -2.591997,-1.968 -2.784,-5.232 -2.784,-6.528 0,-1.392 0.768005,-10.368 5.52,-15.936 2.591997,-3.072 7.248005,-5.376 12.528,-5.376 5.855994,0 8.304,4.416 8.304,8.64 0,0.528 -0.144,1.2 -0.144,1.68 0,0.72 0.624001,0.72 1.296,0.72 1.055999,0 1.104,-0.048 1.344,-1.056 l 2.736,-10.8"
         style="font-size:48px;font-style:italic;font-family:LMMathItalic10;-inkscape-font-specification:LMMathItalic10 Bold Italic"
         id="path2815" />
    </g>
  </g>
</svg>
