<?xml version="1.0" encoding="UTF-8" standalone="no"?>
<!-- Created with Inkscape (http://www.inkscape.org/) -->

<svg
   xmlns:dc="http://purl.org/dc/elements/1.1/"
   xmlns:cc="http://creativecommons.org/ns#"
   xmlns:rdf="http://www.w3.org/1999/02/22-rdf-syntax-ns#"
   xmlns:svg="http://www.w3.org/2000/svg"
   xmlns="http://www.w3.org/2000/svg"
   xmlns:sodipodi="http://sodipodi.sourceforge.net/DTD/sodipodi-0.dtd"
   xmlns:inkscape="http://www.inkscape.org/namespaces/inkscape"
   width="48"
   height="48"
   id="svg2"
   version="1.1"
   inkscape:version="0.47pre4 r22446"
   sodipodi:docname="variables.svg">
  <defs
     id="defs4">
    <inkscape:perspective
       sodipodi:type="inkscape:persp3d"
       inkscape:vp_x="0 : 526.18109 : 1"
       inkscape:vp_y="0 : 1000 : 0"
       inkscape:vp_z="744.09448 : 526.18109 : 1"
       inkscape:persp3d-origin="372.04724 : 350.78739 : 1"
       id="perspective10" />
  </defs>
  <sodipodi:namedview
     id="base"
     pagecolor="#ffffff"
     bordercolor="#666666"
     borderopacity="1.0"
     inkscape:pageopacity="0.0"
     inkscape:pageshadow="2"
     inkscape:zoom="5.6"
     inkscape:cx="59.559375"
     inkscape:cy="39.611755"
     inkscape:document-units="px"
     inkscape:current-layer="text2816"
     showgrid="false"
     inkscape:window-width="1280"
     inkscape:window-height="949"
     inkscape:window-x="0"
     inkscape:window-y="25"
     inkscape:window-maximized="1" />
  <metadata
     id="metadata7">
    <rdf:RDF>
      <cc:Work
         rdf:about="">
        <dc:format>image/svg+xml</dc:format>
        <dc:type
           rdf:resource="http://purl.org/dc/dcmitype/StillImage" />
        <dc:title />
      </cc:Work>
    </rdf:RDF>
  </metadata>
  <g
     inkscape:label="Ebene 1"
     inkscape:groupmode="layer"
     id="layer1"
     transform="translate(0,-1004.3622)">
    <g
       style="font-size:40px;font-style:normal;font-variant:normal;font-weight:bold;font-stretch:normal;fill:#000000;fill-opacity:1;stroke:none;font-family:KacstFarsi;-inkscape-font-specification:KacstFarsi Medium"
       id="text2816">
      <path
         d="m 38.932,1016.1102 c 0.719999,-1.056 1.296003,-1.872 4.608,-1.92 0.575999,0 1.44,0 1.44,-1.392 0,-0.288 -0.240001,-0.864 -0.864,-0.864 -1.391999,0 -2.928001,0.144 -4.368,0.144 -1.727998,0 -3.600002,-0.144 -5.28,-0.144 -0.384,0 -1.296,0 -1.296,1.392 0,0.864 0.816,0.864 1.248,0.864 0.24,0 1.632001,0 2.688,0.48 l -15.84,23.04 -4.224,-22.464 c -0.048,-0.144 -0.096,-0.528 -0.096,-0.672 0,-0.384 2.592,-0.384 2.928,-0.384 1.055999,0 1.824,0 1.824,-1.392 0,-0.624 -0.480001,-0.864 -1.056,-0.864 -1.199999,0 -2.448001,0.096 -3.648,0.096 -1.151999,0 -2.352001,0.048 -3.504,0.048 -1.103999,0 -2.208001,-0.048 -3.312,-0.048 -1.0559989,0 -2.160001,-0.096 -3.168,-0.096 -0.4319996,0 -1.344,0 -1.344,1.392 0,0.864 0.768001,0.864 1.776,0.864 0.6239994,0 1.2000007,0 1.872,0.048 0.5279995,0.048 0.5760001,0.096 0.72,0.912 l 5.472,29.184 c 0.24,1.344 0.768001,1.344 1.68,1.344 1.343999,0 1.584001,-0.336 2.208,-1.248 l 19.536,-28.32"
         style="font-size:48px;font-style:italic;font-family:LMMathItalic10;-inkscape-font-specification:LMMathItalic10 Bold Italic"
         id="path2825" />
    </g>
  </g>
</svg>
