<?xml version="1.0" encoding="UTF-8" standalone="no"?>
<!-- Created with Inkscape (http://www.inkscape.org/) -->

<svg
   xmlns:dc="http://purl.org/dc/elements/1.1/"
   xmlns:cc="http://creativecommons.org/ns#"
   xmlns:rdf="http://www.w3.org/1999/02/22-rdf-syntax-ns#"
   xmlns:svg="http://www.w3.org/2000/svg"
   xmlns="http://www.w3.org/2000/svg"
   xmlns:sodipodi="http://sodipodi.sourceforge.net/DTD/sodipodi-0.dtd"
   xmlns:inkscape="http://www.inkscape.org/namespaces/inkscape"
   width="48"
   height="48"
   id="svg2"
   version="1.1"
   inkscape:version="0.47pre4 r22446"
   sodipodi:docname="functions.svg">
  <defs
     id="defs4">
    <inkscape:perspective
       sodipodi:type="inkscape:persp3d"
       inkscape:vp_x="0 : 526.18109 : 1"
       inkscape:vp_y="0 : 1000 : 0"
       inkscape:vp_z="744.09448 : 526.18109 : 1"
       inkscape:persp3d-origin="372.04724 : 350.78739 : 1"
       id="perspective10" />
  </defs>
  <sodipodi:namedview
     id="base"
     pagecolor="#ffffff"
     bordercolor="#666666"
     borderopacity="1.0"
     inkscape:pageopacity="0.0"
     inkscape:pageshadow="2"
     inkscape:zoom="5.6"
     inkscape:cx="59.559375"
     inkscape:cy="39.611755"
     inkscape:document-units="px"
     inkscape:current-layer="layer1"
     showgrid="false"
     inkscape:window-width="1280"
     inkscape:window-height="949"
     inkscape:window-x="0"
     inkscape:window-y="25"
     inkscape:window-maximized="1" />
  <metadata
     id="metadata7">
    <rdf:RDF>
      <cc:Work
         rdf:about="">
        <dc:format>image/svg+xml</dc:format>
        <dc:type
           rdf:resource="http://purl.org/dc/dcmitype/StillImage" />
        <dc:title />
      </cc:Work>
    </rdf:RDF>
  </metadata>
  <g
     inkscape:label="Ebene 1"
     inkscape:groupmode="layer"
     id="layer1"
     transform="translate(0,-1004.3622)">
    <g
       style="font-size:40px;font-style:normal;font-variant:normal;font-weight:bold;font-stretch:normal;fill:#000000;fill-opacity:1;stroke:none;font-family:KacstFarsi;-inkscape-font-specification:KacstFarsi Medium"
       id="text2816">
      <path
         d="m 20.068,1029.6462 3.12,0 c 2.879997,0 3.696,0.48 3.696,2.064 0,0.528 -0.144,1.44 -0.288,2.016 -0.096,0.336 -0.144,0.576 -0.144,0.672 0,0.72 0.624,0.864 1.104,0.864 0.911999,0 0.96,-0.288 1.2,-1.152 l 2.688,-10.704 c 0.192,-0.624 0.192,-0.72 0.192,-0.768 0,-0.864 -0.96,-0.864 -1.152,-0.864 -0.911999,0 -1.008,0.336 -1.248,1.248 -0.959999,3.648 -2.448003,4.368 -5.904,4.368 l -2.688,0 3.168,-12.816 c 0.623999,-0.096 1.152,-0.096 1.632,-0.096 l 5.712,0 c 5.471995,0 7.152,1.392 7.152,5.616 0,1.152 -0.192,2.592 -0.192,2.784 0,0.912 0.912,0.912 1.152,0.912 1.007999,0 1.056,-0.48 1.152,-1.344 l 0.864,-8.592 0.048,-0.768 c 0,-0.864 -0.816001,-0.864 -1.584,-0.864 l -25.824,0 c -1.007999,0 -1.056,0.048 -1.296,0.24 -0.336,0.24 -0.432,1.104 -0.432,1.152 0,0.864 0.672001,0.864 1.968,0.864 1.007999,0 1.920001,0.048 2.928,0.096 l -6.768,27.072 c -0.192,0.768 -0.240001,0.816 -1.104,0.912 -0.8159992,0.048 -1.7760008,0.048 -2.544,0.048 -1.2479988,0 -1.3440002,0 -1.536,0.096 -0.5759994,0.336 -0.576,1.104 -0.576,1.296 0,0.048 1.1e-6,0.864 1.056,0.864 1.1999988,0 2.4480012,-0.096 3.648,-0.096 1.295999,0 2.592001,-0.048 3.888,-0.048 1.439999,0 2.880001,0.048 4.32,0.048 1.391999,0 2.784001,0.096 4.128,0.096 0.575999,0 1.44,0 1.44,-1.392 0,-0.864 -0.816001,-0.864 -1.584,-0.864 l -1.584,0 c -1.823998,0 -2.544,-0.096 -3.024,-0.192 l 3.216,-12.768"
         style="font-size:48px;font-style:italic;font-family:LMMathItalic10;-inkscape-font-specification:LMMathItalic10 Bold Italic"
         id="path2828" />
    </g>
    <g
       style="font-size:40px;font-style:normal;font-weight:normal;fill:#000000;fill-opacity:1;stroke:none;font-family:Bitstream Vera Sans"
       id="text2862">
      <path
         d="m 37.327143,1041.8422 c -0.719999,0.2 -1.08,0.88 -1.08,1.38 0,0.44 0.340001,0.92 1,0.92 0.7,0 1.44,-0.58 1.44,-1.56 0,-1.06 -1.060001,-1.76 -2.28,-1.76 -1.139998,0 -1.88,0.86 -2.14,1.22 -0.499999,-0.84 -1.620001,-1.22 -2.76,-1.22 -2.519997,0 -3.88,2.46 -3.88,3.12 0,0.28 0.300001,0.28 0.48,0.28 0.24,0 0.38,0 0.46,-0.26 0.58,-1.82 2.020001,-2.42 2.84,-2.42 0.76,0 1.12,0.36 1.12,1 0,0.38 -0.28,1.48 -0.46,2.2 -0.179999,0.74 -0.54,2.2 -0.68,2.74 -0.299999,1.22 -1.02,1.82 -1.7,1.82 -0.1,0 -0.56,0 -0.96,-0.3 0.72,-0.2 1.08,-0.88 1.08,-1.38 0,-0.44 -0.34,-0.92 -1,-0.92 -0.699999,0 -1.44,0.58 -1.44,1.56 0,1.06 1.060002,1.76 2.28,1.76 1.139999,0 1.880001,-0.86 2.14,-1.22 0.5,0.84 1.620002,1.22 2.76,1.22 2.519998,0 3.88,-2.46 3.88,-3.12 0,-0.28 -0.3,-0.28 -0.48,-0.28 -0.239999,0 -0.38,0 -0.46,0.26 -0.579999,1.82 -2.02,2.42 -2.84,2.42 -0.759999,0 -1.12,-0.36 -1.12,-1 0,-0.42 0.260001,-1.48 0.44,-2.22 0.14,-0.52 0.600001,-2.4 0.7,-2.72 0.3,-1.2 1.000001,-1.82 1.7,-1.82 0.1,0 0.560001,0 0.96,0.3"
         style="font-size:20px;font-style:italic;font-variant:normal;font-weight:bold;font-stretch:normal;font-family:LMMathItalic10;-inkscape-font-specification:LMMathItalic10 Bold Italic"
         id="path2831" />
    </g>
  </g>
</svg>
