<?xml version="1.0" encoding="UTF-8" standalone="no"?>
<!-- Created with Inkscape (http://www.inkscape.org/) -->

<svg
   xmlns:dc="http://purl.org/dc/elements/1.1/"
   xmlns:cc="http://creativecommons.org/ns#"
   xmlns:rdf="http://www.w3.org/1999/02/22-rdf-syntax-ns#"
   xmlns:svg="http://www.w3.org/2000/svg"
   xmlns="http://www.w3.org/2000/svg"
   xmlns:xlink="http://www.w3.org/1999/xlink"
   xmlns:sodipodi="http://sodipodi.sourceforge.net/DTD/sodipodi-0.dtd"
   xmlns:inkscape="http://www.inkscape.org/namespaces/inkscape"
   width="330"
   height="330"
   sodipodi:version="0.32"
   inkscape:version="0.47pre4 r22446"
   sodipodi:docname="Infinite_selected.svg"
   id="svg2"
   version="1.1">
  <sodipodi:namedview
     pagecolor="#ffffff"
     bordercolor="#666666"
     borderopacity="1"
     objecttolerance="10"
     gridtolerance="10"
     guidetolerance="10"
     inkscape:pageopacity="0"
     inkscape:pageshadow="2"
     inkscape:window-width="1280"
     inkscape:window-height="949"
     id="namedview12"
     showgrid="false"
     inkscape:zoom="1.6006326"
     inkscape:cx="152.24197"
     inkscape:cy="122.84974"
     inkscape:window-x="0"
     inkscape:window-y="25"
     inkscape:window-maximized="1"
     inkscape:current-layer="svg2" />
  <defs
     id="defs4">
    <linearGradient
       id="linearGradient3590">
      <stop
         style="stop-color:#ffc363;stop-opacity:1;"
         offset="0"
         id="stop3592" />
      <stop
         style="stop-color:#fff6c2;stop-opacity:1;"
         offset="1"
         id="stop3594" />
    </linearGradient>
    <linearGradient
       id="linearGradient5046">
      <stop
         style="stop-color:#ffaf71;stop-opacity:1;"
         offset="0"
         id="stop5048" />
      <stop
         id="stop5056"
         offset="1"
         style="stop-color:#fff148;stop-opacity:0.58039218;" />
    </linearGradient>
    <inkscape:perspective
       sodipodi:type="inkscape:persp3d"
       inkscape:vp_x="0 : 110 : 1"
       inkscape:vp_y="0 : 1000 : 0"
       inkscape:vp_z="330 : 110 : 1"
       inkscape:persp3d-origin="165 : 73.333333 : 1"
       id="perspective14" />
    <linearGradient
       inkscape:collect="always"
       xlink:href="#linearGradient3590"
       id="linearGradient3596"
       x1="-98.586034"
       y1="25.120546"
       x2="132.32269"
       y2="25.120546"
       gradientUnits="userSpaceOnUse" />
  </defs>
  <metadata
     id="metadata6">
    <rdf:RDF>
      <cc:Work>
        <dc:format>image/svg+xml</dc:format>
        <dc:type
           rdf:resource="http://purl.org/dc/dcmitype/StillImage" />
        <dc:creator>
          <cc:Agent>
            <dc:title>MarianSigler</dc:title>
          </cc:Agent>
        </dc:creator>
        <cc:license
           rdf:resource="http://web.resource.org/cc/PublicDomain" />
        <dc:title />
      </cc:Work>
      <cc:License
         rdf:about="http://web.resource.org/cc/PublicDomain">
        <cc:permits
           rdf:resource="http://web.resource.org/cc/Reproduction" />
        <cc:permits
           rdf:resource="http://web.resource.org/cc/Distribution" />
        <cc:permits
           rdf:resource="http://web.resource.org/cc/DerivativeWorks" />
      </cc:License>
    </rdf:RDF>
  </metadata>
  <path
     sodipodi:type="arc"
     style="opacity:1;fill:url(#linearGradient3596);fill-opacity:1;fill-rule:evenodd;stroke:#000000;stroke-width:0.99962395000000004;stroke-linecap:butt;stroke-linejoin:miter;stroke-miterlimit:4;stroke-opacity:1;stroke-dasharray:none"
     id="path2820"
     sodipodi:cx="16.86833"
     sodipodi:cy="25.120546"
     sodipodi:rx="114.95455"
     sodipodi:ry="122.45158"
     d="m 131.82288,25.120546 a 114.95455,122.45158 0 1 1 -229.909102,0 114.95455,122.45158 0 1 1 229.909102,0 z"
     transform="matrix(0,1.3573364,-1.2691322,0,199.31509,141.54446)" />
  <g
     transform="translate(2.162023,53.152165)"
     id="g8">
    <path
       style="fill:#000000;fill-opacity:1;stroke:none"
       d="m 177.4905,123.22017 c 7.32403,13.03725 15.82013,22.85171 25.48834,29.44342 9.81424,6.44541 20.87382,9.66807 33.17878,9.66799 14.79468,8e-5 26.87965,-4.90715 36.25496,-14.72171 9.37471,-9.96085 14.06222,-22.63176 14.06253,-38.01278 -3.1e-4,-14.794797 -4.32161,-27.099498 -12.9639,-36.914135 -8.64288,-9.814291 -19.48274,-14.721523 -32.5196,-14.721711 -11.86551,1.88e-4 -22.63212,4.90742 -32.29987,14.721711 -9.52173,9.668152 -19.92213,26.513874 -31.20124,50.537215 M 150.68381,99.709379 c -7.17792,-12.890493 -15.67402,-22.558473 -25.48834,-29.003968 -9.66813,-6.445144 -20.72771,-9.667804 -33.178778,-9.667989 -14.795054,1.85e-4 -26.880028,4.907417 -36.254959,14.721711 -9.37509,9.66815 -14.062595,22.192578 -14.06253,37.573317 -6.5e-5,14.79508 4.321229,27.09978 12.963895,36.91414 8.642509,9.81456 19.482365,14.7218 32.519599,14.72171 11.865137,9e-5 22.558513,-4.8339 32.080143,-14.50198 9.66784,-9.66788 20.14148,-26.58685 31.42097,-50.756941 m 15.60062,40.210041 c -10.4006,19.92201 -21.31369,34.49722 -32.73933,43.72568 -11.27947,9.22859 -23.87714,13.84285 -37.793049,13.8428 -19.775531,5e-5 -36.548011,-8.20308 -50.317488,-24.60942 C 31.811432,156.47228 24.999901,136.18417 24.999949,112.01409 24.999901,86.379432 31.079009,65.65187 43.237293,49.831344 55.541927,34.01121 71.508741,26.101045 91.137784,26.100825 c 13.915916,2.2e-4 26.367106,4.541241 37.353596,13.623076 10.98619,8.935763 21.97253,23.730701 32.95905,44.384859 9.96077,-20.214704 20.72738,-35.082885 32.29987,-44.604586 11.57207,-9.667773 24.4627,-14.501763 38.67196,-14.501984 19.48219,2.21e-4 36.10818,8.276598 49.87804,24.829154 13.91572,16.552949 20.87374,36.987542 20.87406,61.303836 -3.2e-4,25.48845 -6.15267,46.14277 -18.45707,61.96302 -12.15852,15.67392 -28.05209,23.51085 -47.68076,23.5108 -13.91629,5e-5 -26.29424,-4.24801 -37.13387,-12.74417 -10.69359,-8.64253 -21.89966,-23.29098 -33.61823,-43.94541"
       id="path10" />
  </g>
</svg>
