<?xml version="1.0" encoding="UTF-8" standalone="no"?>
<!-- Created with Inkscape (http://www.inkscape.org/) -->

<svg
   xmlns:dc="http://purl.org/dc/elements/1.1/"
   xmlns:cc="http://creativecommons.org/ns#"
   xmlns:rdf="http://www.w3.org/1999/02/22-rdf-syntax-ns#"
   xmlns:svg="http://www.w3.org/2000/svg"
   xmlns="http://www.w3.org/2000/svg"
   xmlns:xlink="http://www.w3.org/1999/xlink"
   xmlns:sodipodi="http://sodipodi.sourceforge.net/DTD/sodipodi-0.dtd"
   xmlns:inkscape="http://www.inkscape.org/namespaces/inkscape"
   version="1.1"
   width="48"
   height="48"
   id="svg3309"
   inkscape:version="0.47pre4 r22446"
   sodipodi:docname="ooo-math.svg">
  <metadata
     id="metadata60">
    <rdf:RDF>
      <cc:Work
         rdf:about="">
        <dc:format>image/svg+xml</dc:format>
        <dc:type
           rdf:resource="http://purl.org/dc/dcmitype/StillImage" />
        <dc:title></dc:title>
      </cc:Work>
    </rdf:RDF>
  </metadata>
  <sodipodi:namedview
     pagecolor="#ffffff"
     bordercolor="#666666"
     borderopacity="1"
     objecttolerance="10"
     gridtolerance="10"
     guidetolerance="10"
     inkscape:pageopacity="0"
     inkscape:pageshadow="2"
     inkscape:window-width="640"
     inkscape:window-height="480"
     id="namedview58"
     showgrid="false"
     inkscape:zoom="5.1875"
     inkscape:cx="24"
     inkscape:cy="24"
     inkscape:window-x="0"
     inkscape:window-y="25"
     inkscape:window-maximized="0"
     inkscape:current-layer="svg3309" />
  <defs
     id="defs3311">
    <inkscape:perspective
       sodipodi:type="inkscape:persp3d"
       inkscape:vp_x="0 : 24 : 1"
       inkscape:vp_y="0 : 1000 : 0"
       inkscape:vp_z="48 : 24 : 1"
       inkscape:persp3d-origin="24 : 16 : 1"
       id="perspective62" />
    <radialGradient
       cx="605.71429"
       cy="486.64789"
       r="117.14286"
       fx="605.71429"
       fy="486.64789"
       id="radialGradient4424"
       xlink:href="#linearGradient5060"
       gradientUnits="userSpaceOnUse"
       gradientTransform="matrix(0.02409717,0,0,0.01537476,26.477584,38.629039)" />
    <linearGradient
       id="linearGradient5060">
      <stop
         id="stop5062"
         style="stop-color:black;stop-opacity:1"
         offset="0" />
      <stop
         id="stop5064"
         style="stop-color:black;stop-opacity:0"
         offset="1" />
    </linearGradient>
    <radialGradient
       cx="605.71429"
       cy="486.64789"
       r="117.14286"
       fx="605.71429"
       fy="486.64789"
       id="radialGradient4422"
       xlink:href="#linearGradient5060"
       gradientUnits="userSpaceOnUse"
       gradientTransform="matrix(-0.02409717,0,0,0.01537476,21.522412,38.629039)" />
    <linearGradient
       id="linearGradient5048">
      <stop
         id="stop5050"
         style="stop-color:black;stop-opacity:0"
         offset="0" />
      <stop
         id="stop5056"
         style="stop-color:black;stop-opacity:1"
         offset="0.5" />
      <stop
         id="stop5052"
         style="stop-color:black;stop-opacity:0"
         offset="1" />
    </linearGradient>
    <linearGradient
       x1="302.85715"
       y1="366.64789"
       x2="302.85715"
       y2="609.50507"
       id="linearGradient4420"
       xlink:href="#linearGradient5048"
       gradientUnits="userSpaceOnUse"
       gradientTransform="matrix(0.0704142,0,0,0.01537476,-1.4497047,38.629007)" />
    <linearGradient
       id="linearGradient3104">
      <stop
         id="stop3106"
         style="stop-color:#aaa;stop-opacity:1"
         offset="0" />
      <stop
         id="stop3108"
         style="stop-color:#d2d2d2;stop-opacity:1"
         offset="1" />
    </linearGradient>
    <linearGradient
       id="linearGradient3600">
      <stop
         id="stop3602"
         style="stop-color:#f4f4f4;stop-opacity:1"
         offset="0" />
      <stop
         id="stop3604"
         style="stop-color:#dbdbdb;stop-opacity:1"
         offset="1" />
    </linearGradient>
    <linearGradient
       id="linearGradient8589">
      <stop
         id="stop8591"
         style="stop-color:#fefefe;stop-opacity:1"
         offset="0" />
      <stop
         id="stop8593"
         style="stop-color:#cbcbcb;stop-opacity:1"
         offset="1" />
    </linearGradient>
    <linearGradient
       x1="32.892288"
       y1="8.0590115"
       x2="36.358372"
       y2="5.4565363"
       id="linearGradient3135"
       xlink:href="#linearGradient8589"
       gradientUnits="userSpaceOnUse"
       gradientTransform="matrix(0.9976985,0,0,1.0642049,1.1638,-0.13926)" />
    <linearGradient
       x1="25.132275"
       y1="6.7287393"
       x2="25.132275"
       y2="47.013336"
       id="linearGradient3476"
       xlink:href="#linearGradient3600"
       gradientUnits="userSpaceOnUse"
       gradientTransform="translate(1,0)" />
    <linearGradient
       x1="-51.786404"
       y1="50.786446"
       x2="-51.786404"
       y2="2.9062471"
       id="linearGradient3478"
       xlink:href="#linearGradient3104"
       gradientUnits="userSpaceOnUse"
       gradientTransform="matrix(0.8074968,0,0,0.9358511,60.41023,-1.11448)" />
    <radialGradient
       cx="16.960728"
       cy="5.8834233"
       r="22.105263"
       fx="16.960728"
       fy="5.8834233"
       id="radialGradient3740"
       xlink:href="#linearGradient3720"
       gradientUnits="userSpaceOnUse"
       gradientTransform="matrix(0,2,-1.3459458,0,28.918769,-35.007719)" />
    <linearGradient
       id="linearGradient3720">
      <stop
         id="stop3722"
         style="stop-color:#8badea;stop-opacity:1"
         offset="0" />
      <stop
         id="stop3728"
         style="stop-color:#6396cd;stop-opacity:1"
         offset="0.5" />
      <stop
         id="stop3730"
         style="stop-color:#3b7caf;stop-opacity:1"
         offset="0.84090906" />
      <stop
         id="stop3724"
         style="stop-color:#194c70;stop-opacity:1"
         offset="1" />
    </linearGradient>
    <linearGradient
       x1="10.148324"
       y1="43.124264"
       x2="10.550242"
       y2="-1.086264"
       id="linearGradient3769"
       xlink:href="#linearGradient3763"
       gradientUnits="userSpaceOnUse" />
    <linearGradient
       id="linearGradient3763">
      <stop
         id="stop3765"
         style="stop-color:#1f4b6a;stop-opacity:1"
         offset="0" />
      <stop
         id="stop3767"
         style="stop-color:#4083c2;stop-opacity:1"
         offset="1" />
    </linearGradient>
    <linearGradient
       id="linearGradient4544-7">
      <stop
         id="stop4546-4"
         style="stop-color:white;stop-opacity:1"
         offset="0" />
      <stop
         id="stop4548-1"
         style="stop-color:white;stop-opacity:0"
         offset="1" />
    </linearGradient>
    <linearGradient
       x1="21"
       y1="-1.2162945"
       x2="21"
       y2="43.254292"
       id="linearGradient2945"
       xlink:href="#linearGradient4544-7"
       gradientUnits="userSpaceOnUse" />
  </defs>
  <g
     transform="matrix(0.9561265,0,0,0.9561265,2.05296,2.10593)"
     id="g3704"
     style="display:inline">
    <rect
       width="34"
       height="3.7338707"
       x="7"
       y="44.266129"
       id="rect3706"
       style="opacity:0.40206185;fill:url(#linearGradient4420);fill-opacity:1;fill-rule:nonzero;stroke:none;stroke-width:1;marker:none;visibility:visible;display:inline;overflow:visible" />
    <path
       d="m 7,44.266291 c 0,0 0,3.733665 0,3.733665 -1.2409448,0.007 -3,-0.836525 -3,-1.867073 0,-1.030547 1.3848007,-1.866591 3,-1.866592 z"
       id="path3708"
       style="opacity:0.40206185;fill:url(#radialGradient4422);fill-opacity:1;fill-rule:nonzero;stroke:none;stroke-width:1;marker:none;visibility:visible;display:inline;overflow:visible" />
    <path
       d="m 41,44.266291 c 0,0 0,3.733665 0,3.733665 1.240944,0.007 3,-0.836525 3,-1.867073 0,-1.030547 -1.384801,-1.866591 -3,-1.866592 z"
       id="path3710"
       style="opacity:0.40206185;fill:url(#radialGradient4424);fill-opacity:1;fill-rule:nonzero;stroke:none;stroke-width:1;marker:none;visibility:visible;display:inline;overflow:visible" />
  </g>
  <path
     d="m 7.49996,1.49996 c 8.02029,0 16.04059,0 24.06088,0 1.40694,0.48538 8.96546,6.01514 10.9392,9.84395 0,11.71871 0,23.43742 0,35.15613 -11.66669,0 -23.33339,0 -35.00008,0 0,-15.00003 0,-30.00005 0,-45.00008 z"
     id="path3712"
     style="fill:url(#linearGradient3476);fill-opacity:1;stroke:url(#linearGradient3478);stroke-width:0.9999218;stroke-linecap:butt;stroke-linejoin:round;stroke-miterlimit:4;stroke-opacity:1;stroke-dasharray:none;stroke-dashoffset:0;display:inline" />
  <path
     d="m 30.76754,1.81462 c 0.6375,4.12506 0.60946,9.03447 0.60946,9.03447 0,0 4.86973,-0.1115 10.88525,0.59393 C 37.36537,6.65522 33.9338,4.65884 30.76754,1.81462 z"
     id="path3755"
     style="fill:black;fill-opacity:0.32663317;fill-rule:evenodd;stroke:black;stroke-width:0.5;stroke-linecap:butt;stroke-linejoin:round;stroke-miterlimit:4;stroke-opacity:0.16582917;stroke-dasharray:none;display:inline" />
  <path
     d="m 30.65792,1.50793 c 1.41222,4.1225 1.29509,8.2607 1.29509,8.2607 0,0 7.833,0.54731 10.17514,1.59393 C 43.021788,8.7577822 33.07697,1.2908203 30.65792,1.50793 z"
     id="path3757"
     style="fill:url(#linearGradient3135);fill-opacity:1;fill-rule:evenodd;stroke:none;display:inline" />
  <path
     d="m 16.326096,24.167852 c 0.769199,0.349125 1.369119,0.461399 2.203055,0.461399 0.874145,0 1.954966,-0.386422 1.954966,-1.433801 0,-1.159652 -1.667873,-1.159652 -2.554885,-1.159652 l 0.24809,-1.370359 c 1.107358,0 2.919581,0 2.919581,-1.420727 0,-0.648652 -0.63852,-0.873201 -1.381584,-0.873201 -0.743867,0 -1.447527,0.212244 -1.995174,0.461401 l 0.182549,-1.458794 c 0.729794,-0.21186 1.512262,-0.374119 2.281061,-0.374119 1.395657,0 2.816245,0.585979 2.816245,2.082453 0,1.271158 -0.926015,1.956337 -2.138722,2.205109 l 0,0.03807 c 0.939686,0.324135 1.525935,0.822447 1.525935,1.819455 C 22.387213,25.127184 20.549256,26 18.672697,26 17.773221,26 16.82107,25.875421 16,25.501303 l 0.326096,-1.333446 z"
     id="path3185"
     style="fill:black;fill-opacity:1" />
  <path
     d="m 28.076801,20.000393 c 0,0 -4.805172,10.662103 -6.477935,14.373709 -1.239461,-1.968073 -3.124558,-4.959575 -3.124558,-4.959575 l -4.474308,0 0,3.151437 c 0,0 1.744588,0 2.745028,0 C 17.477794,33.729239 22.058857,41 22.058857,41 c 0,0 7.302149,-16.202724 8.043942,-17.848561 1.632729,0 8.897201,0 8.897201,0 L 39,20 28.076801,20 z"
     id="path3194" />
  <path
     d="m 28.076801,20.500393 c 0,0 -4.805172,10.662103 -6.477935,14.373709 -1.239461,-1.968073 -3.124558,-4.959575 -3.124558,-4.959575 l -4.474308,0 0,3.151437 c 0,0 1.744588,0 2.745028,0 0.732766,1.163275 5.313829,8.434036 5.313829,8.434036 0,0 7.302149,-16.202724 8.043942,-17.848561 1.632729,0 8.897201,0 8.897201,0 L 39,20.5 l -10.923199,0 z"
     id="path3269"
     style="opacity:0.2;fill:black;fill-opacity:1" />
  <path
     d="m 16.326096,24.667852 c 0.769199,0.349125 1.369119,0.461399 2.203055,0.461399 0.874145,0 1.954966,-0.386422 1.954966,-1.433801 0,-1.159652 -1.667873,-1.159652 -2.554885,-1.159652 l 0.24809,-1.370359 c 1.107358,0 2.919581,0 2.919581,-1.420727 0,-0.648652 -0.63852,-0.873201 -1.381584,-0.873201 -0.743867,0 -1.447527,0.212244 -1.995174,0.461401 l 0.182549,-1.458794 c 0.729794,-0.21186 1.512262,-0.374119 2.281061,-0.374119 1.395657,0 2.816245,0.585979 2.816245,2.082453 0,1.271158 -0.926015,1.956337 -2.138722,2.205109 l 0,0.03807 c 0.939686,0.324135 1.525935,0.822447 1.525935,1.819455 0,1.982098 -1.837957,2.854914 -3.714516,2.854914 C 17.773221,26.5 16.82107,26.375421 16,26.001303 l 0.326096,-1.333446 z"
     id="path4043"
     style="opacity:0.2;fill:black;fill-opacity:1" />
</svg>
